<svg width="1077" height="983" viewBox="0 0 1077 983" fill="none" xmlns="http://www.w3.org/2000/svg">
<path d="M405.972 115.97C422.995 89.7862 463.406 98.9105 467.527 129.869L471.455 159.375C472.75 169.108 478.234 177.789 486.466 183.141L511.421 199.366C537.605 216.389 528.481 256.8 497.523 260.921L468.017 264.849C458.284 266.144 449.602 271.628 444.25 279.86L428.026 304.815C411.002 330.999 370.592 321.875 366.471 290.917L362.543 261.411C361.247 251.678 355.764 242.996 347.532 237.644L322.576 221.42C296.392 204.396 305.516 163.986 336.475 159.865L365.981 155.937C375.714 154.641 384.395 149.158 389.747 140.926L405.972 115.97Z" fill="#FBE699"/>
<path d="M545.518 317.825C555.732 302.115 579.978 307.589 582.451 326.164L585.305 347.603C586.082 353.443 589.372 358.652 594.311 361.863L612.444 373.652C628.154 383.866 622.68 408.113 604.105 410.585L582.666 413.439C576.826 414.217 571.617 417.507 568.406 422.446L556.617 440.579C546.403 456.289 522.157 450.815 519.684 432.24L516.83 410.801C516.053 404.961 512.763 399.752 507.823 396.541L489.691 384.752C473.98 374.538 479.455 350.291 498.03 347.819L519.469 344.965C525.309 344.187 530.517 340.897 533.729 335.958L545.518 317.825Z" fill="#FBE699"/>
<path d="M531.972 586.97C548.995 560.786 589.406 569.91 593.527 600.869L597.455 630.375C598.75 640.108 604.234 648.789 612.466 654.141L637.421 670.366C663.605 687.389 654.481 727.8 623.523 731.921L594.017 735.849C584.284 737.144 575.602 742.628 570.25 750.86L554.026 775.815C537.002 801.999 496.592 792.875 492.471 761.917L488.543 732.411C487.247 722.678 481.764 713.996 473.532 708.644L448.576 692.42C422.392 675.396 431.516 634.986 462.475 630.865L491.981 626.937C501.714 625.641 510.395 620.158 515.747 611.926L531.972 586.97Z" fill="#FBE699"/>
<path d="M671.518 788.825C681.732 773.115 705.978 778.59 708.451 797.164L711.305 818.604C712.082 824.443 715.372 829.652 720.311 832.863L738.444 844.652C754.154 854.866 748.68 879.113 730.105 881.585L708.666 884.439C702.826 885.217 697.617 888.507 694.406 893.446L682.617 911.579C672.403 927.289 648.157 921.815 645.684 903.24L642.83 881.801C642.053 875.961 638.763 870.752 633.823 867.541L615.691 855.752C599.98 845.538 605.455 821.292 624.03 818.819L645.469 815.965C651.309 815.187 656.517 811.898 659.729 806.958L671.518 788.825Z" fill="#FBE699"/>
<path d="M877.583 273.257C908.805 272.501 924.119 310.994 900.909 331.892L878.788 351.809C871.491 358.38 867.429 367.81 867.667 377.626L868.387 407.383C869.143 438.605 830.65 453.919 809.752 430.709L789.835 408.588C783.265 401.291 773.834 397.229 764.018 397.467L734.261 398.187C703.039 398.943 687.725 360.45 710.935 339.552L733.056 319.635C740.353 313.065 744.415 303.635 744.177 293.819L743.457 264.061C742.701 232.839 781.194 217.526 802.092 240.735L822.009 262.856C828.579 270.153 838.009 274.215 847.826 273.978L877.583 273.257Z" fill="#AAC4E7"/>
<path d="M789.936 502.465C808.669 502.012 817.857 525.108 803.931 537.646L787.858 552.118C783.48 556.06 781.043 561.718 781.185 567.608L781.709 589.23C782.163 607.963 759.067 617.151 746.528 603.226L732.056 587.153C728.114 582.774 722.456 580.337 716.566 580.479L694.944 581.003C676.211 581.457 667.023 558.361 680.949 545.822L697.022 531.35C701.4 527.408 703.837 521.75 703.695 515.86L703.171 494.238C702.717 475.505 725.814 466.317 738.352 480.243L752.824 496.316C756.766 500.694 762.424 503.131 768.314 502.989L789.936 502.465Z" fill="#AAC4E7"/>
<path d="M370.583 427.257C401.805 426.501 417.119 464.994 393.909 485.892L371.788 505.809C364.491 512.38 360.429 521.81 360.667 531.626L361.387 561.383C362.143 592.605 323.65 607.919 302.752 584.709L282.835 562.588C276.265 555.291 266.834 551.229 257.018 551.467L227.261 552.187C196.039 552.943 180.725 514.45 203.935 493.552L226.056 473.635C233.353 467.065 237.415 457.635 237.177 447.819L236.457 418.061C235.701 386.839 274.194 371.526 295.092 394.735L315.009 416.856C321.579 424.153 331.009 428.215 340.826 427.978L370.583 427.257Z" fill="#AAC4E7"/>
<path d="M282.936 656.465C301.669 656.012 310.857 679.108 296.931 691.646L280.858 706.118C276.48 710.06 274.043 715.718 274.185 721.608L274.709 743.23C275.163 761.963 252.067 771.151 239.528 757.226L225.056 741.153C221.114 736.774 215.456 734.337 209.566 734.479L187.944 735.003C169.211 735.457 160.023 712.361 173.949 699.822L190.022 685.35C194.4 681.408 196.837 675.75 196.695 669.86L196.171 648.238C195.717 629.505 218.814 620.317 231.352 634.243L245.824 650.316C249.766 654.694 255.424 657.131 261.314 656.989L282.936 656.465Z" fill="#AAC4E7"/>
</svg>
