<svg width="137" height="122" viewBox="0 0 137 122" fill="none" xmlns="http://www.w3.org/2000/svg">
<mask id="path-1-inside-1_31_371" fill="white">
<path fill-rule="evenodd" clip-rule="evenodd" d="M82.3845 12.7728C87.9608 10.4708 92.1217 17.1943 87.4619 21.0258C86.2616 22.0126 84.9838 22.9144 83.5812 23.7634C97.8745 28.5559 106.747 38.362 111.976 48.8544C118.074 61.0902 119.249 74.2993 118.407 81.7138C120.625 84.078 121.947 87.4944 121.63 91.1553C121.284 95.1574 118.999 99.2902 114.14 102.618C108.178 106.702 92.5534 112.893 73.4632 112.649C54.3178 112.405 31.6381 105.687 11.6842 83.8869C9.28451 82.034 6.2348 78.2949 5.50326 74.1199C5.12147 71.9403 5.36975 69.606 6.71381 67.4218C7.95734 65.4014 10.0574 63.6399 13.1561 62.233C15.0027 55.6845 19.9978 44.3771 29.3069 35.2141C37.8917 26.7644 50.1387 20.1564 66.8359 20.7847C66.634 20.3326 66.4621 19.8708 66.3205 19.3934C64.9968 14.9313 70.6475 11.5396 74.0298 14.7369C74.5254 15.2053 74.998 15.7178 75.46 16.2834C75.5016 16.2574 75.5431 16.2303 75.5857 16.2053C78.0281 14.7719 80.2379 13.6591 82.3845 12.7728Z"/>
</mask>
<path fill-rule="evenodd" clip-rule="evenodd" d="M82.3845 12.7728C87.9608 10.4708 92.1217 17.1943 87.4619 21.0258C86.2616 22.0126 84.9838 22.9144 83.5812 23.7634C97.8745 28.5559 106.747 38.362 111.976 48.8544C118.074 61.0902 119.249 74.2993 118.407 81.7138C120.625 84.078 121.947 87.4944 121.63 91.1553C121.284 95.1574 118.999 99.2902 114.14 102.618C108.178 106.702 92.5534 112.893 73.4632 112.649C54.3178 112.405 31.6381 105.687 11.6842 83.8869C9.28451 82.034 6.2348 78.2949 5.50326 74.1199C5.12147 71.9403 5.36975 69.606 6.71381 67.4218C7.95734 65.4014 10.0574 63.6399 13.1561 62.233C15.0027 55.6845 19.9978 44.3771 29.3069 35.2141C37.8917 26.7644 50.1387 20.1564 66.8359 20.7847C66.634 20.3326 66.4621 19.8708 66.3205 19.3934C64.9968 14.9313 70.6475 11.5396 74.0298 14.7369C74.5254 15.2053 74.998 15.7178 75.46 16.2834C75.5016 16.2574 75.5431 16.2303 75.5857 16.2053C78.0281 14.7719 80.2379 13.6591 82.3845 12.7728Z" fill="#FBE699"/>
<path d="M82.3845 12.7728L80.8582 9.07547L80.858 9.07553L82.3845 12.7728ZM87.4619 21.0258L90.0022 24.1156L90.0024 24.1155L87.4619 21.0258ZM83.5812 23.7634L81.5101 20.3413C80.1771 21.1481 79.4339 22.6554 79.6055 24.2039C79.7772 25.7525 80.8324 27.0605 82.3096 27.5558L83.5812 23.7634ZM111.976 48.8544L115.556 47.0702L115.556 47.0701L111.976 48.8544ZM118.407 81.7138L114.433 81.2626C114.301 82.4287 114.687 83.5941 115.49 84.45L118.407 81.7138ZM121.63 91.1553L125.616 91.5004L125.616 91.5002L121.63 91.1553ZM114.14 102.618L116.401 105.919L116.401 105.918L114.14 102.618ZM73.4632 112.649L73.4122 116.649L73.4122 116.649L73.4632 112.649ZM11.6842 83.8869L14.6347 81.1861C14.4798 81.0168 14.3105 80.8611 14.1288 80.7208L11.6842 83.8869ZM5.50326 74.1199L1.56324 74.8101L1.56328 74.8103L5.50326 74.1199ZM6.71381 67.4218L3.30735 65.3251L3.30711 65.3255L6.71381 67.4218ZM13.1561 62.233L14.8097 65.8752C15.8826 65.3881 16.6861 64.4527 17.0059 63.3187L13.1561 62.233ZM29.3069 35.2141L26.501 32.3634L26.501 32.3634L29.3069 35.2141ZM66.8359 20.7847L66.6855 24.7818C68.0665 24.8338 69.3766 24.1691 70.1503 23.0239C70.924 21.8788 71.0517 20.4153 70.4881 19.1534L66.8359 20.7847ZM66.3205 19.3934L62.4856 20.5309L62.4857 20.531L66.3205 19.3934ZM74.0298 14.7369L76.7777 11.8301L76.7776 11.83L74.0298 14.7369ZM75.46 16.2834L72.3622 18.8138C73.6372 20.3748 75.8746 20.7433 77.5829 19.6736L75.46 16.2834ZM75.5857 16.2053L73.561 12.7556L73.561 12.7556L75.5857 16.2053ZM82.3845 12.7728L83.9109 16.4701C84.4716 16.2387 84.7871 16.3026 84.9228 16.3478C85.0947 16.405 85.2508 16.5265 85.3574 16.6992C85.4635 16.8714 85.4883 17.0403 85.4671 17.1752C85.4521 17.2706 85.386 17.5541 84.9215 17.9361L87.4619 21.0258L90.0024 24.1155C93.9269 20.8886 94.3372 16.0188 92.1662 12.4992C90.0109 9.0053 85.5103 7.15499 80.8582 9.07547L82.3845 12.7728ZM87.4619 21.0258L84.9216 17.936C83.8767 18.795 82.7567 19.5868 81.5101 20.3413L83.5812 23.7634L85.6524 27.1854C87.211 26.2421 88.6465 25.2302 90.0022 24.1156L87.4619 21.0258ZM83.5812 23.7634L82.3096 27.5558C95.4064 31.9472 103.541 40.8978 108.396 50.6387L111.976 48.8544L115.556 47.0701C109.952 35.8262 100.343 25.1646 84.8528 19.9709L83.5812 23.7634ZM111.976 48.8544L108.396 50.6386C114.123 62.1291 115.195 74.5536 114.433 81.2626L118.407 81.7138L122.382 82.1649C123.304 74.045 122.026 60.0513 115.556 47.0702L111.976 48.8544ZM118.407 81.7138L115.49 84.45C116.955 86.0126 117.861 88.318 117.645 90.8103L121.63 91.1553L125.616 91.5002C126.034 86.6708 124.294 82.1435 121.325 78.9775L118.407 81.7138ZM121.63 91.1553L117.645 90.8101C117.418 93.4395 115.909 96.5585 111.88 99.3184L114.14 102.618L116.401 105.918C122.089 102.022 125.15 96.8753 125.616 91.5004L121.63 91.1553ZM114.14 102.618L111.88 99.3183C106.658 102.895 91.8567 108.884 73.5142 108.65L73.4632 112.649L73.4122 116.649C93.2501 116.902 109.698 110.509 116.401 105.919L114.14 102.618ZM73.4632 112.649L73.5142 108.65C55.3333 108.418 33.7534 102.073 14.6347 81.1861L11.6842 83.8869L8.73358 86.5876C29.5228 109.3 53.3024 116.392 73.4122 116.649L73.4632 112.649ZM11.6842 83.8869L14.1288 80.7208C12.2464 79.2673 9.95115 76.3283 9.44323 73.4296L5.50326 74.1199L1.56328 74.8103C2.51844 80.2615 6.32266 84.8006 9.23952 87.0529L11.6842 83.8869ZM5.50326 74.1199L9.44327 73.4298C9.20051 72.0439 9.37201 70.7344 10.1205 69.518L6.71381 67.4218L3.30711 65.3255C1.36749 68.4776 1.04243 71.8367 1.56324 74.8101L5.50326 74.1199ZM6.71381 67.4218L10.1203 69.5184C10.8381 68.3522 12.2218 67.0502 14.8097 65.8752L13.1561 62.233L11.5025 58.5909C7.89288 60.2297 5.0766 62.4506 3.30735 65.3251L6.71381 67.4218ZM13.1561 62.233L17.0059 63.3187C18.7112 57.2715 23.4101 46.631 32.1129 38.0648L29.3069 35.2141L26.501 32.3634C16.5854 42.1233 11.2942 54.0976 9.3062 61.1474L13.1561 62.233ZM29.3069 35.2141L32.1129 38.0649C40.0404 30.262 51.2574 24.2013 66.6855 24.7818L66.8359 20.7847L66.9863 16.7875C49.0201 16.1114 35.7429 23.2668 26.501 32.3634L29.3069 35.2141ZM66.8359 20.7847L70.4881 19.1534C70.3558 18.8572 70.2456 18.5601 70.1553 18.2557L66.3205 19.3934L62.4857 20.531C62.6786 21.1816 62.9121 21.8081 63.1836 22.416L66.8359 20.7847ZM66.3205 19.3934L70.1553 18.2558C70.099 18.0661 70.1304 17.9942 70.1486 17.9531C70.1845 17.872 70.2827 17.7347 70.4745 17.6192C70.6661 17.5038 70.8472 17.4731 70.9612 17.4802C71.0347 17.4849 71.1323 17.5021 71.2821 17.6437L74.0298 14.7369L76.7776 11.83C70.5546 5.94748 59.948 11.9763 62.4856 20.5309L66.3205 19.3934ZM74.0298 14.7369L71.282 17.6436C71.6408 17.9828 71.9975 18.3674 72.3622 18.8138L75.46 16.2834L78.5579 13.7529C77.9985 13.0682 77.41 12.4279 76.7777 11.8301L74.0298 14.7369ZM75.46 16.2834L77.5829 19.6736C77.6026 19.6613 77.6205 19.6499 77.6309 19.6433C77.6372 19.6394 77.6407 19.6371 77.6447 19.6346C77.6482 19.6324 77.6503 19.631 77.6516 19.6302C77.6544 19.6285 77.6513 19.6304 77.6449 19.6343C77.6384 19.6384 77.6264 19.6456 77.6104 19.6551L75.5857 16.2053L73.561 12.7556C73.4884 12.7982 73.428 12.8359 73.3933 12.8577C73.316 12.9063 73.3777 12.8678 73.3372 12.8932L75.46 16.2834ZM75.5857 16.2053L77.6103 19.6551C79.9222 18.2982 81.965 17.2735 83.911 16.4701L82.3845 12.7728L80.858 9.07553C78.5109 10.0446 76.134 11.2455 73.561 12.7556L75.5857 16.2053Z" fill="#FFCD7C" mask="url(#path-1-inside-1_31_371)"/>
<ellipse cx="62.4705" cy="86.9352" rx="8" ry="4.5" transform="rotate(10.4746 62.4705 86.9352)" fill="#F6C575"/>
<ellipse cx="62.9252" cy="84.4768" rx="11.5" ry="4.5" transform="rotate(10.4746 62.9252 84.4768)" fill="#FFCD7C"/>
<path d="M77.2701 72.8917C79.8357 71.0638 85.7874 68.941 89.0702 75.0733" stroke="#5C3A03" stroke-width="5" stroke-linecap="round" stroke-linejoin="round"/>
<path d="M118.367 33.3616L134.088 19.8768" stroke="#AAC4E7" stroke-width="3" stroke-linecap="round" stroke-linejoin="round"/>
<path d="M121.965 38.2381L134.663 32.2582" stroke="#AAC4E7" stroke-width="3" stroke-linecap="round" stroke-linejoin="round"/>
<path d="M113.288 30.4715L117.866 20.6986" stroke="#AAC4E7" stroke-width="3" stroke-linecap="round" stroke-linejoin="round"/>
<path d="M54.6535 68.7103C52.9111 66.086 48.1117 61.9755 42.8534 66.5287" stroke="#5C3A03" stroke-width="5" stroke-linecap="round" stroke-linejoin="round"/>
</svg>
